<svg width="90" height="67" viewBox="0 0 90 67" fill="none" xmlns="http://www.w3.org/2000/svg">
<g clip-path="url(#clip0_1_30)">
<path d="M20.4546 66.6702V32.3336L9.67043 22.5915L0 17.1853V60.6107C0 63.9635 2.75098 66.6702 6.13652 66.6702H20.4546Z" fill="#4285F4"/>
<path d="M69.5454 66.6703H83.8635C87.2592 66.6703 90 63.9535 90 60.6108V17.1858L79.0467 23.3779L69.5454 32.3337V66.6703Z" fill="#34A853"/>
<path d="M20.4546 32.3335L18.9872 18.9172L20.4546 6.07642L45 24.2546L69.5454 6.07642L71.1868 18.2239L69.5454 32.3335L45 50.5117L20.4546 32.3335Z" fill="#EA4335"/>
<path d="M69.5454 6.07641V32.3335L90 17.1852V9.10599C90 1.61275 81.3375 -2.65893 75.273 1.83493L69.5454 6.07641Z" fill="#FBBC04"/>
<path d="M0 17.1854L9.40746 24.1527L20.4546 32.3336V6.07657L14.727 1.83509C8.65195 -2.65912 0 1.61291 0 9.1058V17.1854Z" fill="#C5221F"/>
</g>
<defs>
<clipPath id="clip0_1_30">
<rect width="90" height="67" fill="white"/>
</clipPath>
</defs>
</svg>
